# xmcd
#
# Track frame offsets: 
#        150
#        14310
#        38689
#        58112
#        72280
#        88417
#        104920
#        125860
#        149522
#        167265
#
# Disc length: 2490 seconds
#
# Revision: 0
# Processed by: cddbd v1.5.2PL0 Copyright (c) Steve Scherf et al.
# Submitted via: ExactAudioCopy v0.99pb3
#
DISCID=9409b80a
DTITLE=Ike Cosse - The Spot Is Hot
DYEAR=1995
DGENRE=Blues
TTITLE0=Homeboy
TTITLE1=Time Clock Blues
TTITLE2=Enough Is Enough
TTITLE3=Hit The ROad
TTITLE4=Feel Your Touch
TTITLE5=I Just Wanna Rent
TTITLE6=The Spot Is Hot
TTITLE7=Expanation
TTITLE8=Cold World Blues
TTITLE9=Kickin Back With Slack
EXTD=
EXTT0=
EXTT1=
EXTT2=
EXTT3=
EXTT4=
EXTT5=
EXTT6=
EXTT7=
EXTT8=
EXTT9=
PLAYORDER=
